# xmcd
#
# Track frame offsets: 
#        182
#        11937
#        22700
#        35367
#        48130
#        56655
#        68540
#        81182
#        92270
#        100777
#        111075
#        120590
#        130455
#        145245
#        153862
#        163022
#        173332
#        183305
#        192432
#        201477
#        214445
#        223280
#        234962
#        244155
#        254835
#        265335
#        278290
#        291045
#        300367
#        313197
#        327635
#        340260
#
# Disc length: 4683 seconds
#
# Revision: 0
# Processed by: cddbd v1.4PL0 Copyright (c) Steve Scherf et al.
# Submitted via: ExactAudioCopy v0.90a11
#
DISCID=cc124920
DTITLE=The Golden Gate Quartet - Birth of a Legend - Their Early Years
DTITLE=1937-1939
DYEAR=1900
DGENRE=
TTITLE0=Golden Gate Gospel Train
TTITLE1=Gabriel Blows His Horn
TTITLE2=Bedside Of A Neighbor
TTITLE3=Preacher And The Bear
TTITLE4=Born Ten Thousands Years Ago
TTITLE5=Job
TTITLE6=Massa's In The Cold Cold Ground
TTITLE7=Motherless Child
TTITLE8=Travelin' Shoes
TTITLE9=Dipsy Doodle
TTITLE10=Lead Me On And On
TTITLE11=Sampson
TTITLE12=Take Your Burdens To God
TTITLE13=Bye And Bye Little Children
TTITLE14=Let That Liar Alone
TTITLE15=God Almighty Said
TTITLE16=Saints Go Marching In
TTITLE17=Rock My Soul
TTITLE18=To The Rock
TTITLE19=I Heard Zion Moan
TTITLE20=Packing Up - Getting Ready
TTITLE21=Noah
TTITLE22=Ol' Man Mose
TTITLE23=Hide Me In Thy Bosom
TTITLE24=If I Had My Way
TTITLE25=I Looked Down The Road And I Wondered
TTITLE26='way Down In Egypt Land
TTITLE27=Our Father
TTITLE28=You Better Mind
TTITLE29=I'm A Pilgrim
TTITLE30=Every Time That I Feel The Spirit
TTITLE31=What A Time
EXTD=
EXTT0=
EXTT1=
EXTT2=
EXTT3=
EXTT4=
EXTT5=
EXTT6=
EXTT7=
EXTT8=
EXTT9=
EXTT10=
EXTT11=
EXTT12=
EXTT13=
EXTT14=
EXTT15=
EXTT16=
EXTT17=
EXTT18=
EXTT19=
EXTT20=
EXTT21=
EXTT22=
EXTT23=
EXTT24=
EXTT25=
EXTT26=
EXTT27=
EXTT28=
EXTT29=
EXTT30=
EXTT31=
PLAYORDER=
